<svg width="707" height="287" viewBox="0 0 707 287" fill="none" xmlns="http://www.w3.org/2000/svg">
<rect x="163.465" width="379.875" height="74" rx="37" fill="#A61E1A"/>
<path d="M193.079 57L193.43 34.5335H197.687L198.082 57H193.079ZM192.465 28.8291C192.465 27.1178 193.869 25.7136 195.581 25.7136C197.292 25.7136 198.696 27.1178 198.696 28.8291C198.696 30.5404 197.292 31.9446 195.581 31.9446C193.869 31.9446 192.465 30.5404 192.465 28.8291Z" fill="white"/>
<path d="M202.838 43.9238L206.963 41.9931C207.796 44.1871 209.595 46.3372 212.974 46.3372C215.739 46.3372 217.582 44.8014 217.582 42.2125C217.582 35.7182 203.759 37.1663 203.759 27.2933C203.759 22.5104 207.314 19 212.974 19C218.81 19 221.311 23.1247 222.057 25.2748L218.02 27.0739C217.318 25.582 215.914 23.4758 212.886 23.4758C210.166 23.4758 208.63 25.1432 208.63 27.2494C208.63 33.3049 222.54 32.2079 222.54 41.8614C222.54 46.9954 218.81 50.8568 212.755 50.8568C206.48 50.8568 203.759 46.6443 202.838 43.9238Z" fill="white"/>
<path d="M225.641 34.9284C225.641 25.933 232.311 19 241.482 19C250.653 19 257.278 25.9769 257.278 34.9284C257.278 43.9677 250.653 50.8568 241.438 50.8568C232.267 50.8568 225.641 44.0115 225.641 34.9284ZM230.731 34.9284C230.731 41.5104 235.295 46.2933 241.482 46.2933C247.625 46.2933 252.232 41.5104 252.232 34.9284C252.232 28.4342 247.625 23.5635 241.482 23.5635C235.295 23.5635 230.731 28.4342 230.731 34.9284Z" fill="white"/>
<path d="M262.019 50.2864V19.5704H266.89V45.8984H277.64V50.2864H262.019Z" fill="white"/>
<path d="M278.391 34.9284C278.391 25.933 285.061 19 294.232 19C303.403 19 310.029 25.9769 310.029 34.9284C310.029 43.9677 303.403 50.8568 294.188 50.8568C285.017 50.8568 278.391 44.0115 278.391 34.9284ZM283.481 34.9284C283.481 41.5104 288.045 46.2933 294.232 46.2933C300.375 46.2933 304.982 41.5104 304.982 34.9284C304.982 28.4342 300.375 23.5635 294.232 23.5635C288.045 23.5635 283.481 28.4342 283.481 34.9284Z" fill="white"/>
<path d="M325.782 50.2864V19.5704H334.69C340.482 19.5704 344.519 23.2564 344.519 28.7852C344.519 34.2263 340.306 38.1316 334.734 38.1316H330.653V50.2864H325.782ZM330.653 33.8753H334.119C337.323 33.8753 339.517 31.8568 339.517 28.7852C339.517 25.7575 337.323 23.8268 334.163 23.8268H330.653V33.8753Z" fill="white"/>
<path d="M347.125 34.9284C347.125 25.933 353.795 19 362.966 19C372.137 19 378.762 25.9769 378.762 34.9284C378.762 43.9677 372.137 50.8568 362.922 50.8568C353.751 50.8568 347.125 44.0115 347.125 34.9284ZM352.215 34.9284C352.215 41.5104 356.779 46.2933 362.966 46.2933C369.109 46.2933 373.716 41.5104 373.716 34.9284C373.716 28.4342 369.109 23.5635 362.966 23.5635C356.779 23.5635 352.215 28.4342 352.215 34.9284Z" fill="white"/>
<path d="M383.503 50.2864V19.5704H391.753C398.335 19.5704 402.02 23.4758 402.02 28.6097C402.02 32.164 400.134 35.2356 397.018 36.5081L404.478 50.2864H399.08L392.63 37.6051H388.374V50.2864H383.503ZM388.374 33.4365H391.665C394.736 33.4365 396.974 31.7252 396.974 28.6097C396.974 25.7575 395.219 23.8268 391.665 23.8268H388.374V33.4365Z" fill="white"/>
<path d="M419.37 50.2864V19.5704H424.24V32.515H438.809V19.5704H443.679V50.2864H438.809V36.9469H424.24V50.2864H419.37Z" fill="white"/>
<path d="M448.383 34.9284C448.383 25.933 455.053 19 464.224 19C473.395 19 480.02 25.9769 480.02 34.9284C480.02 43.9677 473.395 50.8568 464.18 50.8568C455.009 50.8568 448.383 44.0115 448.383 34.9284ZM453.473 34.9284C453.473 41.5104 458.037 46.2933 464.224 46.2933C470.367 46.2933 474.974 41.5104 474.974 34.9284C474.974 28.4342 470.367 23.5635 464.224 23.5635C458.037 23.5635 453.473 28.4342 453.473 34.9284Z" fill="white"/>
<path d="M490.53 50.2864V36.0693L481.052 19.5704H486.581L492.943 31.5497L499.438 19.5704H504.835L495.357 36.0693V50.2864H490.53Z" fill="white"/>
<path d="M509.074 42.037L508.723 19.5704H513.726L513.331 42.037H509.074ZM508.109 47.7852C508.109 46.0739 509.513 44.6697 511.225 44.6697C512.936 44.6697 514.34 46.0739 514.34 47.7852C514.34 49.4527 512.936 50.8568 511.225 50.8568C509.513 50.8568 508.109 49.4527 508.109 47.7852Z" fill="white"/>
<path d="M20.5393 183V175.43C7.14849 173.915 1.61093 163.721 0 158.775L14.3977 151.608C16.3106 155.746 20.1366 159.481 24.9694 159.481C29.0974 159.481 31.2117 157.664 31.2117 154.535C31.2117 145.148 2.01366 145.955 2.01366 123.345C2.01366 112.141 9.16215 104.369 20.5393 102.754V97H30.5069V102.854C41.6827 105.075 46.3141 114.059 47.9251 118.702L33.6281 125.263C32.2185 122.134 30.1042 118.298 24.768 118.298C21.4455 118.298 19.2304 120.317 19.2304 123.042C19.2304 132.631 48.6299 131.622 48.6299 153.223C48.6299 164.326 41.8841 172.704 30.5069 175.026V183H20.5393Z" fill="#E53327"/>
<path d="M87.0199 175.531C68.0915 175.531 57.6205 164.023 57.6205 147.167V103.662H74.8373V147.167C74.8373 154.838 79.4687 159.582 87.1206 159.582C94.8732 159.582 99.2026 154.838 99.2026 147.066V103.662H116.419V147.066C116.419 163.62 105.646 175.531 87.0199 175.531Z" fill="#E53327"/>
<path d="M176.839 126.474C176.839 140.202 167.879 149.589 154.186 149.589H145.93V174.319H128.713V103.662H154.085C168.382 103.662 176.839 112.545 176.839 126.474ZM151.769 118.5H145.93V134.751H151.568C156.602 134.751 159.22 131.319 159.22 126.474C159.22 121.73 156.501 118.5 151.769 118.5Z" fill="#E53327"/>
<path d="M223.314 174.319H184.954V103.662H222.508V119.106H202.171V130.915H219.488V146.258H202.171V158.876H223.314V174.319Z" fill="#E53327"/>
<path d="M281.443 125.364C281.443 133.136 278.121 140.505 271.677 144.038C271.677 144.038 271.576 143.836 287.887 174.319H268.858L256.273 148.176H251.037V174.319H233.82V103.662H256.776C273.389 103.662 281.443 111.333 281.443 125.364ZM255.366 118.5H251.037V133.742H256.172C260.904 133.742 263.824 130.815 263.824 125.969C263.824 121.326 261.609 118.5 255.366 118.5Z" fill="#E53327"/>
<path d="M347.97 175.631C325.719 175.631 311.02 159.683 311.02 138.89C311.02 118.399 325.719 102.35 347.97 102.35C370.221 102.35 384.921 118.399 384.921 138.89C384.921 159.683 370.221 175.631 347.97 175.631ZM347.97 118.5C336.694 118.5 328.941 127.282 328.941 138.89C328.941 150.8 336.795 159.481 347.97 159.481C359.146 159.481 366.999 150.8 366.999 138.89C366.999 127.282 359.247 118.5 347.97 118.5Z" fill="#E53327"/>
<path d="M428.626 147.369H411.107V174.319H393.89V103.662H431.143V119.106H411.107V132.026H428.626V147.369Z" fill="#E53327"/>
<path d="M479.741 174.319H441.381V103.662H478.935V119.106H458.597V130.915H475.915V146.258H458.597V158.876H479.741V174.319Z" fill="#E53327"/>
<path d="M537.87 125.364C537.87 133.136 534.548 140.505 528.104 144.038C528.104 144.038 528.003 143.836 544.314 174.319H525.285L512.699 148.176H507.464V174.319H490.247V103.662H513.203C529.816 103.662 537.87 111.333 537.87 125.364ZM511.793 118.5H507.464V133.742H512.599C517.331 133.742 520.251 130.815 520.251 125.969C520.251 121.326 518.036 118.5 511.793 118.5Z" fill="#E53327"/>
<path d="M592.535 119.106H577.332V174.319H560.115V119.106H544.912V103.662H592.535V119.106Z" fill="#E53327"/>
<path d="M633.53 158.472H611.38L606.346 174.319H589.028L613.393 103.662H631.516L655.882 174.319H638.564L633.53 158.472ZM629.1 144.34L622.455 121.932L615.81 144.34H629.1Z" fill="#E53327"/>
<path d="M683.346 102.35C698.448 102.35 704.288 113.352 706.1 118.702L691.803 125.263C690.394 122.134 688.279 118.298 682.943 118.298C679.621 118.298 677.406 120.317 677.406 123.042C677.406 132.631 706.805 131.622 706.805 153.223C706.805 166.244 697.542 175.631 682.138 175.631C666.331 175.631 659.988 164.124 658.175 158.775L672.573 151.608C674.486 155.746 678.312 159.481 683.145 159.481C687.273 159.481 689.387 157.664 689.387 154.535C689.387 145.148 660.189 145.955 660.189 123.345C660.189 110.627 669.351 102.35 683.346 102.35Z" fill="#E53327"/>
<path d="M83.6937 242.583L84.027 221.25H88.0687L88.4437 242.583H83.6937ZM83.1104 215.833C83.1104 214.208 84.4437 212.875 86.0687 212.875C87.6937 212.875 89.027 214.208 89.027 215.833C89.027 217.458 87.6937 218.792 86.0687 218.792C84.4437 218.792 83.1104 217.458 83.1104 215.833Z" fill="#A61E1A"/>
<path d="M110.585 227.708H99.9183L96.8766 236.208H92.21L102.835 207.042H107.627L118.252 236.208H113.585L110.585 227.708ZM109.293 223.833L105.252 212.042L101.21 223.833H109.293Z" fill="#A61E1A"/>
<path d="M121.272 244V214.458H125.563V217.333C126.147 216.542 128.355 213.917 132.563 213.917C138.772 213.917 143.188 218.667 143.188 225.292C143.188 232.042 139.063 236.75 132.855 236.75C128.73 236.75 126.397 234.25 125.813 233.333V244H121.272ZM125.647 225.292C125.647 230 128.522 232.708 132.147 232.708C135.938 232.708 138.605 229.667 138.605 225.292C138.605 220.833 135.813 217.958 132.105 217.958C128.105 217.958 125.647 221.292 125.647 225.292Z" fill="#A61E1A"/>
<path d="M157.655 213.917V218.5C152.905 218.5 151.53 222.125 151.53 226.833V236.208H146.988V214.458H151.446V217.875C152.28 215.708 154.571 213.917 157.655 213.917Z" fill="#A61E1A"/>
<path d="M163.869 225.375C163.869 229.667 166.744 232.708 170.786 232.708C174.827 232.708 177.786 229.583 177.786 225.333C177.786 221.083 174.827 217.958 170.786 217.958C166.702 217.958 163.869 221.125 163.869 225.375ZM159.286 225.375C159.286 218.792 164.244 213.917 170.786 213.917C177.494 213.917 182.327 218.792 182.327 225.333C182.327 231.875 177.411 236.75 170.786 236.75C164.119 236.75 159.286 231.958 159.286 225.375Z" fill="#A61E1A"/>
<path d="M196.966 236.208H191.841L183.758 214.458H188.591L194.424 231.292L200.216 214.458H204.966L196.966 236.208Z" fill="#A61E1A"/>
<path d="M206.447 225.417C206.447 218.667 211.072 213.917 217.03 213.917C223.613 213.917 227.488 218.458 227.488 225.292C227.488 225.667 227.488 226.042 227.447 226.417H211.072C211.155 230.292 213.947 232.792 217.822 232.792C221.113 232.792 222.988 230.958 223.822 229.75L226.822 232C225.78 233.792 222.905 236.75 217.738 236.75C210.947 236.75 206.447 232 206.447 225.417ZM211.238 223.292H222.863C222.697 219.708 220.197 217.708 217.072 217.708C213.947 217.708 211.53 219.875 211.238 223.292Z" fill="#A61E1A"/>
<path d="M248.385 216.583L247.01 220.417C246.01 219.458 244.01 218.042 241.26 218.042C237.135 218.042 234.385 221.208 234.385 225.333C234.385 229.5 237.385 232.708 241.427 232.708C244.218 232.708 246.177 231.125 247.093 230.292L248.385 234.042C247.302 235 244.802 236.75 241.177 236.75C234.552 236.75 229.802 231.875 229.802 225.333C229.802 218.833 234.677 213.917 241.135 213.917C244.718 213.917 247.135 215.5 248.385 216.583Z" fill="#A61E1A"/>
<path d="M262.634 213.917C268.259 213.917 270.217 218.375 270.217 223.125V236.208H265.717V222.75C265.717 219.75 263.842 218 261.342 218C258.467 218 256.551 220.125 256.551 223.083V236.208H252.009V206.083H256.551V217.292C257.509 215.583 259.717 213.917 262.634 213.917Z" fill="#A61E1A"/>
<path d="M273.788 229.5C273.788 225.292 277.204 222.333 282.204 222.333C284.704 222.333 286.579 223.167 287.413 223.917V221.875C287.413 219.375 285.663 217.875 282.788 217.875C280.371 217.875 278.288 218.708 276.704 219.583L274.954 216.417C276.704 215.292 279.621 213.917 283.246 213.917C289.704 213.917 291.913 217.417 291.913 222.167V236.208H287.954L287.579 234.583C286.454 235.833 284.704 236.75 281.996 236.75C277.413 236.75 273.788 233.875 273.788 229.5ZM278.329 229.375C278.329 231.542 280.204 233.125 282.954 233.125C285.621 233.125 287.538 231.625 287.538 229.375C287.538 227.083 285.663 225.625 282.913 225.625C280.163 225.625 278.329 227.208 278.329 229.375Z" fill="#A61E1A"/>
<path d="M314.561 236.75C308.936 236.75 306.978 232.292 306.978 227.542V214.458H311.478V227.917C311.478 230.917 313.353 232.667 315.853 232.667C318.728 232.667 320.603 230.583 320.603 227.583V214.458H325.144V236.208H320.686V233.375C319.728 235.125 317.478 236.75 314.561 236.75ZM313.603 211.958L316.478 206H321.311L317.436 211.958H313.603Z" fill="#A61E1A"/>
<path d="M330.053 236.208V206.083H334.594V236.208H330.053Z" fill="#A61E1A"/>
<path d="M340.071 214.458V209.917H344.571V214.458H348.988V218.208H344.571V228.333C344.571 231.708 345.863 232.458 348.28 232.458C348.655 232.458 349.155 232.417 349.155 232.417V236.333C349.155 236.333 348.363 236.5 346.946 236.5C341.655 236.5 340.071 232.958 340.071 227.625V218.208H337.655V214.458H340.071Z" fill="#A61E1A"/>
<path d="M352.798 236.208V214.458H357.34V236.208H352.798ZM352.215 209.083C352.215 207.5 353.465 206.25 355.048 206.25C356.632 206.25 357.882 207.5 357.882 209.083C357.882 210.667 356.632 211.917 355.048 211.917C353.465 211.917 352.215 210.667 352.215 209.083Z" fill="#A61E1A"/>
<path d="M393.15 222V236.208H388.65V223.167C388.65 219.792 387.192 218 384.484 218C381.942 218 380.067 219.875 380.067 223.208V236.208H375.525V222.75C375.525 219.792 373.942 218 371.359 218C368.9 218 366.984 220 366.984 223.125V236.208H362.442V214.458H366.9C366.9 216.292 366.9 217.292 366.9 217.292C367.692 215.625 369.817 213.917 372.775 213.917C375.817 213.917 377.984 215.333 379.025 217.542C380.317 215.25 382.734 213.917 385.734 213.917C390.65 213.917 393.15 217.292 393.15 222Z" fill="#A61E1A"/>
<path d="M396.753 229.5C396.753 225.292 400.17 222.333 405.17 222.333C407.67 222.333 409.545 223.167 410.378 223.917V221.875C410.378 219.375 408.628 217.875 405.753 217.875C403.337 217.875 401.253 218.708 399.67 219.583L397.92 216.417C399.67 215.292 402.587 213.917 406.212 213.917C412.67 213.917 414.878 217.417 414.878 222.167V236.208H410.92L410.545 234.583C409.42 235.833 407.67 236.75 404.962 236.75C400.378 236.75 396.753 233.875 396.753 229.5ZM401.295 229.375C401.295 231.542 403.17 233.125 405.92 233.125C408.587 233.125 410.503 231.625 410.503 229.375C410.503 227.083 408.628 225.625 405.878 225.625C403.128 225.625 401.295 227.208 401.295 229.375Z" fill="#A61E1A"/>
<path d="M418.111 232.417L420.944 230.167C421.944 231.625 423.444 233 426.152 233C428.069 233 429.486 232.042 429.486 230.292C429.486 226.125 418.902 227.625 418.902 220.083C418.902 216.25 422.152 213.917 426.361 213.917C430.444 213.917 432.611 216.292 433.444 217.958L430.319 220.042C429.694 219.042 428.527 217.625 426.111 217.625C424.444 217.625 423.194 218.5 423.194 220C423.194 224.167 433.819 222.417 433.819 230.083C433.819 234.125 430.402 236.75 425.944 236.75C421.527 236.75 419.194 234.375 418.111 232.417Z" fill="#A61E1A"/>
<path d="M455.267 236.75C449.642 236.75 447.684 232.292 447.684 227.542V214.458H452.184V227.917C452.184 230.917 454.059 232.667 456.559 232.667C459.434 232.667 461.309 230.583 461.309 227.583V214.458H465.851V236.208H461.392V233.375C460.434 235.125 458.184 236.75 455.267 236.75Z" fill="#A61E1A"/>
<path d="M481.342 213.917C486.967 213.917 488.926 218.375 488.926 223.125V236.208H484.426V222.75C484.426 219.75 482.551 218 480.051 218C477.176 218 475.301 220.125 475.301 223.083V236.208H470.759V214.458H475.217V217.292C476.176 215.583 478.426 213.917 481.342 213.917Z" fill="#A61E1A"/>
<path d="M493.83 236.208V214.458H498.372V236.208H493.83ZM493.247 209.083C493.247 207.5 494.497 206.25 496.08 206.25C497.664 206.25 498.914 207.5 498.914 209.083C498.914 210.667 497.664 211.917 496.08 211.917C494.497 211.917 493.247 210.667 493.247 209.083Z" fill="#A61E1A"/>
<path d="M524.057 206.083V236.208H519.766V233.375C519.182 234.125 516.974 236.75 512.766 236.75C506.557 236.75 502.141 232.042 502.141 225.375C502.141 218.667 506.266 213.917 512.474 213.917C516.599 213.917 518.932 216.417 519.516 217.375V206.083H524.057ZM519.682 225.417C519.682 220.667 516.807 217.958 513.182 217.958C509.391 217.958 506.724 221.042 506.724 225.417C506.724 229.875 509.516 232.75 513.224 232.75C517.224 232.75 519.682 229.417 519.682 225.417Z" fill="#A61E1A"/>
<path d="M527.816 229.5C527.816 225.292 531.233 222.333 536.233 222.333C538.733 222.333 540.608 223.167 541.441 223.917V221.875C541.441 219.375 539.691 217.875 536.816 217.875C534.399 217.875 532.316 218.708 530.733 219.583L528.983 216.417C530.733 215.292 533.649 213.917 537.274 213.917C543.733 213.917 545.941 217.417 545.941 222.167V236.208H541.983L541.608 234.583C540.483 235.833 538.733 236.75 536.024 236.75C531.441 236.75 527.816 233.875 527.816 229.5ZM532.358 229.375C532.358 231.542 534.233 233.125 536.983 233.125C539.649 233.125 541.566 231.625 541.566 229.375C541.566 227.083 539.691 225.625 536.941 225.625C534.191 225.625 532.358 227.208 532.358 229.375Z" fill="#A61E1A"/>
<path d="M571.298 206.083V236.208H567.007V233.375C566.423 234.125 564.215 236.75 560.007 236.75C553.798 236.75 549.382 232.042 549.382 225.375C549.382 218.667 553.507 213.917 559.715 213.917C563.84 213.917 566.173 216.417 566.757 217.375V206.083H571.298ZM566.923 225.417C566.923 220.667 564.048 217.958 560.423 217.958C556.632 217.958 553.965 221.042 553.965 225.417C553.965 229.875 556.757 232.75 560.465 232.75C564.465 232.75 566.923 229.417 566.923 225.417Z" fill="#A61E1A"/>
<path d="M575.099 225.417C575.099 218.667 579.724 213.917 585.682 213.917C592.266 213.917 596.141 218.458 596.141 225.292C596.141 225.667 596.141 226.042 596.099 226.417H579.724C579.807 230.292 582.599 232.792 586.474 232.792C589.766 232.792 591.641 230.958 592.474 229.75L595.474 232C594.432 233.792 591.557 236.75 586.391 236.75C579.599 236.75 575.099 232 575.099 225.417ZM579.891 223.292H591.516C591.349 219.708 588.849 217.708 585.724 217.708C582.599 217.708 580.182 219.875 579.891 223.292Z" fill="#A61E1A"/>
<path d="M598.246 232.417L601.079 230.167C602.079 231.625 603.579 233 606.287 233C608.204 233 609.621 232.042 609.621 230.292C609.621 226.125 599.037 227.625 599.037 220.083C599.037 216.25 602.287 213.917 606.496 213.917C610.579 213.917 612.746 216.292 613.579 217.958L610.454 220.042C609.829 219.042 608.662 217.625 606.246 217.625C604.579 217.625 603.329 218.5 603.329 220C603.329 224.167 613.954 222.417 613.954 230.083C613.954 234.125 610.537 236.75 606.079 236.75C601.662 236.75 599.329 234.375 598.246 232.417Z" fill="#A61E1A"/>
<path d="M618.695 228.375L618.362 207.042H623.112L622.737 228.375H618.695ZM617.778 233.833C617.778 232.208 619.112 230.875 620.737 230.875C622.362 230.875 623.695 232.208 623.695 233.833C623.695 235.417 622.362 236.75 620.737 236.75C619.112 236.75 617.778 235.417 617.778 233.833Z" fill="#A61E1A"/>
<path d="M214.766 270.202L215.621 268.776L217.683 269.961V267.548H219.393V269.982L221.455 268.776L222.288 270.18L220.205 271.386L222.31 272.57L221.455 274.018L219.393 272.811V275.224H217.683V272.811L215.621 274.018L214.766 272.592L216.871 271.408L214.766 270.202Z" fill="#A61E1A"/>
<path d="M233.158 278.425H227.544L225.943 282.899H223.487L229.079 267.548H231.601L237.193 282.899H234.737L233.158 278.425ZM232.478 276.386L230.351 270.18L228.224 276.386H232.478Z" fill="#A61E1A"/>
<path d="M238.782 287V271.452H241.041V272.965C241.348 272.548 242.51 271.167 244.725 271.167C247.993 271.167 250.317 273.667 250.317 277.154C250.317 280.706 248.146 283.184 244.879 283.184C242.708 283.184 241.48 281.868 241.173 281.386V287H238.782ZM241.085 277.154C241.085 279.632 242.598 281.057 244.506 281.057C246.502 281.057 247.905 279.456 247.905 277.154C247.905 274.807 246.436 273.294 244.484 273.294C242.379 273.294 241.085 275.048 241.085 277.154Z" fill="#A61E1A"/>
<path d="M252.317 282.899V267.044H254.708V282.899H252.317Z" fill="#A61E1A"/>
<path d="M257.393 282.899V271.452H259.783V282.899H257.393ZM257.086 268.623C257.086 267.789 257.744 267.132 258.577 267.132C259.41 267.132 260.068 267.789 260.068 268.623C260.068 269.456 259.41 270.114 258.577 270.114C257.744 270.114 257.086 269.456 257.086 268.623Z" fill="#A61E1A"/>
<path d="M271.547 272.57L270.824 274.588C270.297 274.083 269.245 273.338 267.797 273.338C265.626 273.338 264.179 275.004 264.179 277.175C264.179 279.368 265.758 281.057 267.885 281.057C269.354 281.057 270.385 280.224 270.867 279.785L271.547 281.759C270.977 282.263 269.661 283.184 267.753 283.184C264.267 283.184 261.767 280.618 261.767 277.175C261.767 273.754 264.332 271.167 267.731 271.167C269.617 271.167 270.889 272 271.547 272.57Z" fill="#A61E1A"/>
<path d="M272.753 279.368C272.753 277.154 274.551 275.596 277.183 275.596C278.499 275.596 279.485 276.035 279.924 276.43V275.355C279.924 274.039 279.003 273.25 277.49 273.25C276.218 273.25 275.121 273.689 274.288 274.149L273.367 272.482C274.288 271.89 275.823 271.167 277.731 271.167C281.13 271.167 282.292 273.009 282.292 275.509V282.899H280.209L280.012 282.044C279.42 282.702 278.499 283.184 277.073 283.184C274.661 283.184 272.753 281.671 272.753 279.368ZM275.143 279.303C275.143 280.443 276.13 281.276 277.577 281.276C278.981 281.276 279.99 280.487 279.99 279.303C279.99 278.096 279.003 277.329 277.556 277.329C276.108 277.329 275.143 278.162 275.143 279.303Z" fill="#A61E1A"/>
<path d="M290.375 271.167C293.336 271.167 294.366 273.513 294.366 276.013V282.899H291.998V275.816C291.998 274.237 291.011 273.316 289.695 273.316C288.182 273.316 287.195 274.434 287.195 275.991V282.899H284.805V271.452H287.152V272.943C287.656 272.044 288.84 271.167 290.375 271.167Z" fill="#A61E1A"/>
<path d="M301.64 280.904L303.132 279.719C303.658 280.487 304.447 281.211 305.873 281.211C306.882 281.211 307.627 280.706 307.627 279.785C307.627 277.592 302.057 278.382 302.057 274.412C302.057 272.395 303.768 271.167 305.982 271.167C308.132 271.167 309.272 272.417 309.71 273.294L308.066 274.39C307.737 273.864 307.123 273.118 305.851 273.118C304.974 273.118 304.316 273.579 304.316 274.368C304.316 276.561 309.908 275.64 309.908 279.675C309.908 281.803 308.11 283.184 305.763 283.184C303.439 283.184 302.21 281.934 301.64 280.904Z" fill="#A61E1A"/>
<path d="M313.5 277.197C313.5 279.456 315.013 281.057 317.14 281.057C319.267 281.057 320.824 279.412 320.824 277.175C320.824 274.939 319.267 273.294 317.14 273.294C314.991 273.294 313.5 274.961 313.5 277.197ZM311.087 277.197C311.087 273.732 313.697 271.167 317.14 271.167C320.671 271.167 323.214 273.732 323.214 277.175C323.214 280.618 320.627 283.184 317.14 283.184C313.631 283.184 311.087 280.662 311.087 277.197ZM315.802 270.136L317.315 267H319.859L317.82 270.136H315.802Z" fill="#A61E1A"/>
<path d="M325.195 282.899V267.044H327.586V282.899H325.195Z" fill="#A61E1A"/>
<path d="M331.981 277.197C331.981 279.456 333.495 281.057 335.622 281.057C337.749 281.057 339.306 279.412 339.306 277.175C339.306 274.939 337.749 273.294 335.622 273.294C333.473 273.294 331.981 274.961 331.981 277.197ZM329.569 277.197C329.569 273.732 332.179 271.167 335.622 271.167C339.152 271.167 341.696 273.732 341.696 277.175C341.696 280.618 339.109 283.184 335.622 283.184C332.113 283.184 329.569 280.662 329.569 277.197Z" fill="#A61E1A"/>
<path d="M348.501 277.219C348.501 273.667 350.935 271.167 354.071 271.167C357.536 271.167 359.576 273.557 359.576 277.154C359.576 277.351 359.576 277.548 359.554 277.746H350.935C350.979 279.785 352.449 281.101 354.488 281.101C356.221 281.101 357.207 280.136 357.646 279.5L359.225 280.684C358.677 281.627 357.164 283.184 354.444 283.184C350.87 283.184 348.501 280.684 348.501 277.219ZM351.023 276.101H357.142C357.054 274.215 355.738 273.162 354.093 273.162C352.449 273.162 351.177 274.303 351.023 276.101Z" fill="#A61E1A"/>
<path d="M367.065 271.167C370.026 271.167 371.057 273.513 371.057 276.013V282.899H368.688V275.816C368.688 274.237 367.701 273.316 366.386 273.316C364.872 273.316 363.886 274.434 363.886 275.991V282.899H361.495V271.452H363.842V272.943C364.346 272.044 365.53 271.167 367.065 271.167Z" fill="#A61E1A"/>
<path d="M379.339 271.452V269.061H381.708V271.452H384.032V273.425H381.708V278.754C381.708 280.531 382.387 280.925 383.659 280.925C383.857 280.925 384.12 280.904 384.12 280.904V282.965C384.12 282.965 383.703 283.053 382.958 283.053C380.173 283.053 379.339 281.189 379.339 278.382V273.425H378.067V271.452H379.339Z" fill="#A61E1A"/>
<path d="M386.038 282.899V271.452H388.428V282.899H386.038ZM385.731 268.623C385.731 267.789 386.389 267.132 387.222 267.132C388.055 267.132 388.713 267.789 388.713 268.623C388.713 269.456 388.055 270.114 387.222 270.114C386.389 270.114 385.731 269.456 385.731 268.623Z" fill="#A61E1A"/>
<path d="M390.433 277.219C390.433 273.667 392.868 271.167 396.004 271.167C399.469 271.167 401.508 273.557 401.508 277.154C401.508 277.351 401.508 277.548 401.486 277.746H392.868C392.912 279.785 394.381 281.101 396.42 281.101C398.153 281.101 399.14 280.136 399.578 279.5L401.157 280.684C400.609 281.627 399.096 283.184 396.376 283.184C392.802 283.184 390.433 280.684 390.433 277.219ZM392.955 276.101H399.074C398.986 274.215 397.67 273.162 396.026 273.162C394.381 273.162 393.109 274.303 392.955 276.101Z" fill="#A61E1A"/>
<path d="M408.998 271.167C411.958 271.167 412.989 273.513 412.989 276.013V282.899H410.62V275.816C410.62 274.237 409.634 273.316 408.318 273.316C406.805 273.316 405.818 274.434 405.818 275.991V282.899H403.427V271.452H405.774V272.943C406.278 272.044 407.463 271.167 408.998 271.167Z" fill="#A61E1A"/>
<path d="M426.404 267.044V282.899H424.145V281.408C423.838 281.803 422.675 283.184 420.461 283.184C417.193 283.184 414.868 280.706 414.868 277.197C414.868 273.667 417.04 271.167 420.307 271.167C422.478 271.167 423.706 272.482 424.013 272.987V267.044H426.404ZM424.101 277.219C424.101 274.719 422.588 273.294 420.68 273.294C418.684 273.294 417.281 274.917 417.281 277.219C417.281 279.566 418.75 281.079 420.702 281.079C422.807 281.079 424.101 279.325 424.101 277.219Z" fill="#A61E1A"/>
<path d="M428.382 279.368C428.382 277.154 430.18 275.596 432.812 275.596C434.127 275.596 435.114 276.035 435.553 276.43V275.355C435.553 274.039 434.632 273.25 433.119 273.25C431.847 273.25 430.75 273.689 429.917 274.149L428.996 272.482C429.917 271.89 431.452 271.167 433.36 271.167C436.759 271.167 437.921 273.009 437.921 275.509V282.899H435.838L435.641 282.044C435.049 282.702 434.127 283.184 432.702 283.184C430.29 283.184 428.382 281.671 428.382 279.368ZM430.772 279.303C430.772 280.443 431.759 281.276 433.206 281.276C434.61 281.276 435.619 280.487 435.619 279.303C435.619 278.096 434.632 277.329 433.184 277.329C431.737 277.329 430.772 278.162 430.772 279.303Z" fill="#A61E1A"/>
<path d="M446.376 282.899V273.425H445.126V271.452H446.376V270.947C446.376 268.031 448.241 267.066 450.28 267.066C450.741 267.066 451.135 267.11 451.135 267.11V269.149C451.135 269.149 450.828 269.105 450.565 269.105C449.403 269.105 448.767 269.697 448.767 270.991V271.452H450.982V273.425H448.767V282.899H446.376Z" fill="#A61E1A"/>
<path d="M452.727 282.899V271.452H455.117V282.899H452.727ZM452.595 270.136L454.108 267H456.652L454.613 270.136H452.595Z" fill="#A61E1A"/>
<path d="M456.991 280.904L458.482 279.719C459.008 280.487 459.798 281.211 461.223 281.211C462.232 281.211 462.978 280.706 462.978 279.785C462.978 277.592 457.408 278.382 457.408 274.412C457.408 272.395 459.118 271.167 461.333 271.167C463.482 271.167 464.622 272.417 465.061 273.294L463.416 274.39C463.087 273.864 462.473 273.118 461.201 273.118C460.324 273.118 459.666 273.579 459.666 274.368C459.666 276.561 465.258 275.64 465.258 279.675C465.258 281.803 463.46 283.184 461.114 283.184C458.789 283.184 457.561 281.934 456.991 280.904Z" fill="#A61E1A"/>
<path d="M467.14 282.899V271.452H469.53V282.899H467.14ZM466.833 268.623C466.833 267.789 467.49 267.132 468.324 267.132C469.157 267.132 469.815 267.789 469.815 268.623C469.815 269.456 469.157 270.114 468.324 270.114C467.49 270.114 466.833 269.456 466.833 268.623Z" fill="#A61E1A"/>
<path d="M481.294 272.57L480.57 274.588C480.044 274.083 478.991 273.338 477.544 273.338C475.373 273.338 473.926 275.004 473.926 277.175C473.926 279.368 475.505 281.057 477.632 281.057C479.101 281.057 480.132 280.224 480.614 279.785L481.294 281.759C480.724 282.263 479.408 283.184 477.5 283.184C474.013 283.184 471.513 280.618 471.513 277.175C471.513 273.754 474.079 271.167 477.478 271.167C479.364 271.167 480.636 272 481.294 272.57Z" fill="#A61E1A"/>
<path d="M482.5 279.368C482.5 277.154 484.298 275.596 486.93 275.596C488.245 275.596 489.232 276.035 489.671 276.43V275.355C489.671 274.039 488.75 273.25 487.237 273.25C485.965 273.25 484.868 273.689 484.035 274.149L483.114 272.482C484.035 271.89 485.57 271.167 487.478 271.167C490.877 271.167 492.039 273.009 492.039 275.509V282.899H489.956L489.758 282.044C489.166 282.702 488.245 283.184 486.82 283.184C484.408 283.184 482.5 281.671 482.5 279.368ZM484.89 279.303C484.89 280.443 485.877 281.276 487.324 281.276C488.728 281.276 489.737 280.487 489.737 279.303C489.737 278.096 488.75 277.329 487.302 277.329C485.855 277.329 484.89 278.162 484.89 279.303Z" fill="#A61E1A"/>
</svg>
