<svg width="16" height="16" viewBox="0 0 16 16" fill="none" xmlns="http://www.w3.org/2000/svg">
<path d="M0 8C0 12.4183 3.58175 16 8 16C8 12.9577 8 8 8 8C8 8 2.78259 8 0 8Z" fill="#0052B4"/>
<path d="M16 8C16 12.4183 12.4183 16 8 16C8 12.9577 8 8 8 8C8 8 13.2174 8 16 8Z" fill="white"/>
<path d="M0 8C0 3.58175 3.58175 0 8 0C8 3.04234 8 8 8 8C8 8 2.78259 8 0 8Z" fill="white"/>
<path d="M16 8C16 3.58175 12.4183 0 8 0C8 3.04234 8 8 8 8C8 8 13.2174 8 16 8Z" fill="#D80027"/>
<path d="M5 3L5.47214 4.52787H7L5.76394 5.47213L6.23606 7L5 6.05572L3.76394 7L4.23606 5.47213L3 4.52787H4.52786L5 3Z" fill="#0052B4"/>
<path d="M11 9L11.4721 10.5279H13L11.7639 11.4721L12.2361 13L11 12.0557L9.76394 13L10.2361 11.4721L9 10.5279H10.5279L11 9Z" fill="#D80027"/>
</svg>
