<svg width="22" height="17" viewBox="0 0 22 17" fill="none" xmlns="http://www.w3.org/2000/svg">
<path d="M21.2143 0H0.785714C0.351116 0 0 0.345312 0 0.772727V16.2273C0 16.6547 0.351116 17 0.785714 17H21.2143C21.6489 17 22 16.6547 22 16.2273V0.772727C22 0.345312 21.6489 0 21.2143 0ZM1.76786 1.73864H20.2321V4.63636H1.76786V1.73864ZM20.2321 15.2614H1.76786V6.76136H20.2321V15.2614ZM14.4129 13.7159H18.4643C18.5723 13.7159 18.6607 13.629 18.6607 13.5227V11.7841C18.6607 11.6778 18.5723 11.5909 18.4643 11.5909H14.4129C14.3049 11.5909 14.2165 11.6778 14.2165 11.7841V13.5227C14.2165 13.629 14.3049 13.7159 14.4129 13.7159Z" fill="white"/>
</svg>
