<svg width="13" height="10" viewBox="0 0 13 10" fill="none" xmlns="http://www.w3.org/2000/svg">
<path d="M12.5357 0H0.464286C0.207478 0 0 0.203125 0 0.454545V9.54545C0 9.79688 0.207478 10 0.464286 10H12.5357C12.7925 10 13 9.79688 13 9.54545V0.454545C13 0.203125 12.7925 0 12.5357 0ZM1.04464 1.02273H11.9554V2.72727H1.04464V1.02273ZM11.9554 8.97727H1.04464V3.97727H11.9554V8.97727ZM8.51674 8.06818H10.9107C10.9746 8.06818 11.0268 8.01705 11.0268 7.95455V6.93182C11.0268 6.86932 10.9746 6.81818 10.9107 6.81818H8.51674C8.4529 6.81818 8.40067 6.86932 8.40067 6.93182V7.95455C8.40067 8.01705 8.4529 8.06818 8.51674 8.06818Z" fill="white"/>
</svg>
