<?xml version="1.0" encoding="utf-8"?>
<!-- Generator: Adobe Illustrator 24.0.2, SVG Export Plug-In . SVG Version: 6.00 Build 0)  -->
<svg version="1.1" id="Capa_1" xmlns="http://www.w3.org/2000/svg" xmlns:xlink="http://www.w3.org/1999/xlink" x="0px" y="0px"
	 viewBox="0 0 1500 371" style="enable-background:new 0 0 1500 371;" xml:space="preserve">
<style type="text/css">
	.st0{fill:#DF2028;}
</style>
<g>
	<g id="XMLID_39_">
		<g id="XMLID_61_">
			<g id="XMLID_62_">
				<g id="XMLID_63_">
					<g id="XMLID_64_">
						<g id="XMLID_65_">
							<g id="XMLID_66_">
								<path id="XMLID_67_" class="st0" d="M472.39,124.94c-0.09-63.41-63.18-85.76-117.14-85.68
									c-37.98,0.05-126.83,9.63-131.81,97.12c-0.12,1.88,0.49,3.68,1.81,5.12c1.2,1.25,2.79,1.92,4.51,1.91l64.16-0.09
									c3.27,0,6.01-2.61,6.25-5.94c2.65-30.95,29.54-37.46,51.68-37.49c31.85-0.04,47.99,10.24,48.02,30.4
									c0.03,21.19-15.39,24.17-47.57,28.31c-8.33,1.08-16.93,2.23-25.55,3.86c-39.44,4.75-112.88,13.62-112.77,91.73
									c0.08,56.73,51.67,86.34,102.57,86.27c28.16-0.04,67.39-8.7,92.94-33c19.31-18.34,43.23-24.86,59.33-24.88
									c1.36,0,2.66-0.68,3.55-1.73c0.85-1.13,1.17-2.71,0.9-4c-0.46-2.12-0.67-4.77-0.68-8.61L472.39,124.94z M337.8,279.78
									c-28.72,0.04-44.59-9.76-47.1-28.95c-3.4-25.22,20.97-34.8,42.06-38.48c6.68-1.22,13.75-2.07,20.61-2.96l1.15-0.19
									c15.21-1.84,29.64-3.65,41.95-8.94l0.05,34.18C396.56,267.66,361.39,279.75,337.8,279.78 M195.02,47.78l0.21,151.72
									c0.09,63.86-14.16,137.09-125.59,137.24l-52.36,0.07c-2.54,0-4.62-2.08-4.62-4.62l-0.09-62.75c0-2.67,2.06-4.77,4.61-4.78
									l57.46-0.08c37.41-0.05,44.45-23.45,44.39-66.39l-0.2-150.31c0-3.53,2.82-6.51,6.3-6.52l63.53-0.09
									C192.16,41.27,195.02,44.25,195.02,47.78 M912.56,131.4l0.27,197.73c0,3.54-2.83,6.47-6.3,6.47l-64.15,0.09
									c-3.51,0-6.29-2.91-6.29-6.46l-0.24-178.81c-0.02-14.16-3.31-51.18-45.06-51.13c-38.83,0.05-42.99,33.11-42.96,51.25
									l0.24,178.81c0,3.54-2.89,6.47-6.3,6.47l-63.5,0.09c-3.42,0-6.29-2.91-6.29-6.46l-0.24-178.81
									c-0.02-18.14-4.24-51.18-43.13-51.13c-41.66,0.06-44.86,37.09-44.84,51.25l0.24,178.81c0,3.54-2.88,6.47-6.34,6.47
									l-64.13,0.09c-3.51,0-6.28-2.91-6.29-6.46l-0.27-197.73c-0.08-60.05,49.91-92.97,121.54-93.07
									c33.22-0.05,51.08,8.99,64.12,15.6c6.94,3.51,12,6.04,17.03,6.03c5.04-0.01,10.03-2.55,17.03-6.08
									c13.02-6.64,30.82-15.73,64-15.77C862.41,38.57,912.48,71.35,912.56,131.4 M1192.43,123.96
									c-0.09-63.41-63.15-85.76-117.12-85.68c-38.03,0.05-126.86,9.63-131.77,97.12c-0.22,1.88,0.43,3.68,1.76,5.12
									c1.19,1.25,2.79,1.92,4.5,1.91l64.13-0.09c3.24,0,6.06-2.61,6.3-5.94c2.58-30.95,29.47-37.46,51.6-37.49
									c31.91-0.04,48.09,10.24,48.12,30.4c0.03,21.19-15.43,24.17-47.61,28.31c-8.35,1.08-16.94,2.23-25.57,3.86
									c-39.48,4.75-112.86,13.62-112.75,91.73c0.08,56.73,51.64,86.34,102.55,86.27c28.15-0.04,67.42-8.7,92.97-33
									c19.24-18.34,43.22-24.86,59.26-24.88c1.4,0,2.71-0.68,3.57-1.73c0.85-1.13,1.2-2.71,0.87-4c-0.41-2.12-0.62-4.77-0.62-8.61
									L1192.43,123.96z M1057.8,278.8c-28.69,0.04-44.51-9.76-47.12-28.95c-3.38-25.22,20.96-34.8,42.1-38.48
									c6.66-1.22,13.81-2.07,20.65-2.96l1.14-0.19c15.19-1.84,29.62-3.65,41.91-8.94l0.05,34.18
									C1116.56,266.68,1081.44,278.77,1057.8,278.8 M1408.44,44.4l0.09,62.76c0,2.55-2.05,4.65-4.59,4.65l-57.44,0.08
									c-37.4,0.05-44.43,23.48-44.38,66.51l0.2,150.2c0,3.54-2.86,6.47-6.35,6.47l-63.52,0.09c-3.45,0-6.27-2.91-6.27-6.46
									l-0.21-151.71c-0.09-63.88,14.07-137.15,125.5-137.3l52.36-0.07C1406.38,39.62,1408.44,41.75,1408.44,44.4 M1463.04,79.19
									c5.55-1.15,8.71-5.01,8.71-10.59c-0.01-7.09-4.05-10.72-12.01-10.71l-13.69,0.02c-0.22,0-0.38,0.18-0.38,0.41l0.05,37.13
									c0,0.2,0.16,0.37,0.38,0.37l4-0.01c0.23,0,0.37-0.17,0.37-0.37l-0.02-16.11l7.04-0.01l10.39,16.28
									c0.08,0.1,0.22,0.18,0.22,0.18l5.07-0.01l0,0l0,0c0.24,0,0.39-0.17,0.39-0.37c0-0.14-0.06-0.27-0.13-0.32L1463.04,79.19z
									 M1450.42,62.4l8.51-0.01c5.41-0.01,8,2.01,8.01,6.14c0.01,4.39-2.43,6.36-7.99,6.36l-8.51,0.01L1450.42,62.4z
									 M1457.22,45.27c-16.74,0.02-30.34,14.21-30.31,31.63c0.02,17.43,13.66,31.6,30.4,31.58c16.78-0.02,30.4-14.23,30.37-31.66
									C1487.66,59.4,1474,45.24,1457.22,45.27 M1457.3,104.01c-14.34,0.02-25.61-11.91-25.63-27.11
									c-0.02-15.22,11.21-27.13,25.56-27.15c14.39-0.02,25.65,11.82,25.67,27C1482.92,92.01,1471.69,103.99,1457.3,104.01"/>
							</g>
						</g>
					</g>
				</g>
			</g>
		</g>
	</g>
</g>
</svg>
